<svg width="25" height="39" viewBox="0 0 25 39" fill="none" xmlns="http://www.w3.org/2000/svg">
<path d="M21.3787 3.60424C19.0452 1.28002 15.9304 0 12.6079 0C12.5705 0 12.5326 0.000157545 12.4991 0.000472704C9.14818 0.000472704 6.00832 1.2749 3.65785 3.58903C1.29904 5.91143 0 9.02252 0 12.3493C0 18.9782 11.6093 37.6771 12.1035 38.4698C12.1891 38.6071 12.3385 38.6905 12.4991 38.6905C12.6597 38.6905 12.8092 38.6071 12.8947 38.4698C13.389 37.677 25 18.9782 25 12.3493C25.0001 9.036 23.714 5.93026 21.3787 3.60424ZM12.4992 37.3216C10.4264 33.9219 0.935293 18.0422 0.935293 12.3493C0.935293 6.06145 6.12282 0.945949 12.5032 0.945949C12.538 0.945713 12.5731 0.945476 12.6079 0.945476C18.9253 0.945476 24.0648 6.06129 24.0648 12.3493C24.0648 18.0414 14.5723 33.9218 12.4992 37.3216Z" fill="#5281AF"/>
</svg>
