<svg width="25" height="26" viewBox="0 0 25 26" fill="none" xmlns="http://www.w3.org/2000/svg">
<path d="M16.201 6.44061C16.2007 6.68917 16.1018 6.92746 15.926 7.10311L11.131 11.8981C10.9858 12.0432 10.8707 12.2155 10.7921 12.4051C10.7136 12.5947 10.6732 12.7979 10.6732 13.0031C10.6732 13.2083 10.7136 13.4116 10.7921 13.6012C10.8707 13.7908 10.9858 13.963 11.131 14.1081L15.9197 18.8969C16.0905 19.0737 16.185 19.3105 16.1828 19.5563C16.1807 19.8021 16.0821 20.0373 15.9083 20.2111C15.7345 20.3849 15.4993 20.4835 15.2535 20.4856C15.0077 20.4878 14.7709 20.3933 14.5941 20.2225L9.80533 15.4375C9.16144 14.7923 8.7998 13.9181 8.7998 13.0066C8.7998 12.095 9.16144 11.2208 9.80533 10.5756L14.6003 5.77749C14.7314 5.64629 14.8985 5.55693 15.0804 5.52072C15.2624 5.48451 15.4509 5.50308 15.6223 5.57407C15.7936 5.64506 15.9401 5.76529 16.0431 5.91954C16.1461 6.07379 16.201 6.25513 16.201 6.44061V6.44061Z" fill="#212121"/>
</svg>
