<svg width="11" height="10" viewBox="0 0 11 10" fill="none" xmlns="http://www.w3.org/2000/svg">
<path d="M10.6445 3.52128L7.34688 3.06505L5.87277 0.220085C5.83251 0.142191 5.76627 0.0791345 5.68445 0.0408059C5.47925 -0.0556336 5.22988 0.0247327 5.12728 0.220085L3.65317 3.06505L0.355584 3.52128C0.26467 3.53365 0.181548 3.57445 0.117908 3.63627C0.0409712 3.71155 -0.00142464 3.81283 3.65552e-05 3.91785C0.00149775 4.02287 0.0466964 4.12305 0.125701 4.19636L2.51155 6.41076L1.94788 9.53763C1.93466 9.61037 1.94312 9.68517 1.97229 9.75357C2.00146 9.82197 2.05017 9.88121 2.11291 9.92459C2.17565 9.96797 2.24991 9.99375 2.32725 9.999C2.4046 10.0042 2.48194 9.98876 2.55051 9.9543L5.50003 8.47803L8.44954 9.9543C8.53007 9.9951 8.62358 10.0087 8.71319 9.99386C8.93918 9.95677 9.09114 9.75276 9.05217 9.53763L8.4885 6.41076L10.8744 4.19636C10.9393 4.13578 10.9822 4.05665 10.9951 3.9701C11.0302 3.75373 10.8718 3.55343 10.6445 3.52128Z" fill="#DFC157"/>
</svg>
