<svg width="19" height="19" viewBox="0 0 19 19" fill="none" xmlns="http://www.w3.org/2000/svg">
<path d="M18.3859 6.69044L12.6901 5.8236L10.1439 0.418161C10.0743 0.270163 9.95993 0.150355 9.8186 0.0775313C9.46415 -0.105704 9.03343 0.0469921 8.85621 0.418161L6.31002 5.8236L0.614191 6.69044C0.457157 6.71393 0.313583 6.79145 0.20366 6.90891C0.0707685 7.05195 -0.00246073 7.24438 6.31408e-05 7.44392C0.00258702 7.64346 0.0806575 7.83379 0.21712 7.97309L4.33813 12.1804L3.36452 18.1215C3.34169 18.2597 3.35629 18.4018 3.40668 18.5318C3.45706 18.6617 3.54121 18.7743 3.64958 18.8567C3.75795 18.9391 3.8862 18.9881 4.0198 18.9981C4.1534 19.0081 4.28699 18.9787 4.40543 18.9132L9.50004 16.1083L14.5947 18.9132C14.7337 18.9907 14.8953 19.0165 15.0501 18.9883C15.4404 18.9179 15.7029 18.5303 15.6356 18.1215L14.662 12.1804L18.783 7.97309C18.8951 7.85798 18.9692 7.70763 18.9916 7.54319C19.0522 7.13208 18.7785 6.75152 18.3859 6.69044ZM12.9279 11.5885L13.7377 16.5288L9.50004 14.1984L5.26238 16.5311L6.07223 11.5908L2.64441 8.09055L7.38234 7.36935L9.50004 2.87539L11.6178 7.36935L16.3557 8.09055L12.9279 11.5885Z" fill="#888888"/>
</svg>
