<svg width="42" height="65" viewBox="0 0 42 65" fill="#ED7899" xmlns="http://www.w3.org/2000/svg">
<path d="M35.9162 6.05512C31.996 2.15043 26.763 0 21.1813 0C21.1184 0 21.0548 0.000264676 20.9985 0.000794143C15.3689 0.000794143 10.094 2.14183 6.1452 6.02957C2.18239 9.93121 0 15.1578 0 20.7469C0 31.8834 19.5035 63.2975 20.3338 64.6292C20.4777 64.86 20.7286 65 20.9985 65C21.2684 65 21.5194 64.86 21.6631 64.6292C22.4936 63.2974 42 31.8833 42 20.7469C42.0001 15.1805 39.8395 9.96284 35.9162 6.05512ZM20.9986 62.7003C17.5164 56.9888 1.57129 30.3109 1.57129 20.7469C1.57129 10.1832 10.2863 1.58919 21.0053 1.58919C21.0638 1.5888 21.1228 1.5884 21.1813 1.5884C31.7945 1.5884 40.4288 10.183 40.4288 20.7469C40.4288 30.3096 24.4814 56.9886 20.9986 62.7003Z" fill="#ED7899"/>
</svg>
