<svg width="50" height="50" viewBox="0 0 50 50" fill="none" xmlns="http://www.w3.org/2000/svg">
<path d="M25 3.91429C13.36 3.91429 3.91429 13.3486 3.91429 25C3.91429 33.3943 8.83428 40.6057 15.9314 44L16.5886 31.2514C16.5886 31.2514 15.3429 30.84 15.08 30.7086C12.4457 29.5486 10.5314 26.1314 10.5314 21.6971C10.5314 16.8686 14.2743 12.7029 17.9086 12.6629H17.9257C21.5486 12.7029 25.3029 16.8686 25.3029 21.6971C25.3029 26.1314 23.3886 29.5486 20.7543 30.7086C20.7314 30.7143 19.2286 31.2629 19.2286 31.2629L19.9657 45.44C21.5829 45.8343 23.2571 46.0743 25 46.0743C27.3486 46.0743 29.6 45.68 31.7029 44.9657L32.36 32.3314C30.64 31.9486 29.1714 30.8571 28.2457 29.48C27.1029 27.7771 29.1257 12.6629 29.1257 12.6629H30.44V26.8457H31.7429V12.6686H33.16V26.8514H34.4629V12.6686H35.9371V26.8514H37.24V12.6686H38.2457C38.2457 12.6686 40.2571 27.7829 39.1257 29.4914C38.2114 30.8514 36.76 31.9371 35.0571 32.3257C35.0286 32.3314 35.0057 32.3486 35.0057 32.3486L35.5714 43.2114C41.8514 39.5657 46.0857 32.7829 46.0857 24.9943C46.08 13.3486 36.64 3.91429 25 3.91429ZM13.6114 19.5657C13.6857 19.2514 13.7943 18.96 13.7943 18.9543C13.8229 18.84 13.7657 18.7257 13.64 18.6514C13.5257 18.5886 13.3771 18.6229 13.3086 18.72C13.3086 18.72 13.1657 18.9486 12.9486 19.2914C12.7829 19.5829 12.5257 20.0457 12.36 20.6343C12.2057 21.1371 12.0286 21.8171 11.9486 22.5829C11.92 22.9829 11.9143 23.3371 11.92 23.7029C11.9486 24.1314 12.0171 24.4857 12.1429 24.8971C12.5543 26.08 12.8743 27.2171 14.0286 28.3371C14.3886 28.7086 14.76 28.9714 15.0343 29.1543L15.1257 29.2229C15.1886 29.2571 15.24 29.2971 15.2914 29.3314C15.52 29.4457 15.6743 29.4914 15.7029 29.4971C15.8114 29.5257 15.9314 29.4743 15.9771 29.3829C16.0229 29.2857 15.9886 29.1657 15.8914 29.0857C15.8914 29.0857 15.76 28.9714 15.5943 28.7543C15.48 28.6229 15.3486 28.44 15.2057 28.2286C15.1086 28.0743 14.9886 27.9086 14.8686 27.7429C14.3143 26.8914 13.9829 25.6971 13.5429 24.4686C13.4514 24.2057 13.3829 23.8571 13.3543 23.5657C13.3257 23.2286 13.2971 22.9029 13.2971 22.6057C13.2914 21.9029 13.32 21.3029 13.3829 20.8114C13.4571 20.2686 13.5086 19.8571 13.6114 19.5657ZM25 0C11.2114 0 0 11.2114 0 25C0 38.7771 11.2114 50 25 50C38.7829 50 50 38.7771 50 25C50 11.2114 38.7829 0 25 0ZM25 48.1314C12.2457 48.1314 1.86286 37.7543 1.86286 25C1.86286 12.2457 12.2457 1.86286 25 1.86286C37.7543 1.86286 48.1314 12.2457 48.1314 25C48.1314 37.7543 37.7543 48.1314 25 48.1314Z" fill="#2B659D" fill-opacity="0.95"/>
</svg>
